<?xml version="1.0" encoding="utf-8"?>
<!-- Generator: Adobe Illustrator 16.2.1, SVG Export Plug-In . SVG Version: 6.00 Build 0)  -->
<!DOCTYPE svg PUBLIC "-//W3C//DTD SVG 1.1//EN" "http://www.w3.org/Graphics/SVG/1.1/DTD/svg11.dtd">
<svg version="1.1" id="Ebene_1" xmlns="http://www.w3.org/2000/svg" xmlns:xlink="http://www.w3.org/1999/xlink" x="0px" y="0px"
	 width="1300px" height="400px" viewBox="0 0 1300 400" enable-background="new 0 0 1300 400" xml:space="preserve">
<g id="Boundingbox">
	<rect fill="none" width="1300" height="400"/>
</g>
<g id="Volkswagen_Group_Services_GmbH">
	<g>
		<path d="M470.782,298.504c-3.308,1.232-7.353,1.923-11.004,1.923c-10.412,0-16.531-6.266-16.531-16.431
			c0-10.314,6.119-17.766,17.912-17.766c2.862,0,5.922,0.492,8.487,1.183v4.44c-2.812-1.135-6.069-1.727-8.932-1.727
			c-8.979,0-12.632,6.316-12.632,13.225c0,8.291,4.59,13.127,12.336,13.127c2.22,0,4.096-0.345,5.873-0.887v-12.585h4.49V298.504
			L470.782,298.504z"/>
		<path d="M507.836,299.982l-10.066-14.409h-2.417v14.409h-4.541v-33.26c0,0,4.392-0.248,8.686-0.248
			c6.958,0,11.695,2.715,11.695,9.082c0,5.771-3.998,8.732-8.735,9.424c0,0,1.432,1.727,2.715,3.555l8.29,11.447H507.836
			L507.836,299.982z M495.353,282.121c0,0,1.875,0.047,3.553,0.047c4.835,0,7.55-2.268,7.55-6.068c0-3.799-2.566-5.921-7.353-5.921
			c-1.826,0-3.75,0.099-3.75,0.099V282.121z"/>
		<path d="M542.965,300.479c-9.672,0-14.951-6.467-14.951-16.683c0-11.396,7.255-17.614,15.841-17.614
			c9.673,0,14.951,6.465,14.951,16.678C558.805,294.259,551.551,300.479,542.965,300.479z M543.409,270.179
			c-5.97,0-10.609,4.539-10.609,12.927c0,7.996,3.554,13.375,10.609,13.375c5.971,0,10.61-4.539,10.61-12.932
			C554.018,275.559,550.466,270.179,543.409,270.179z"/>
		<path d="M602.669,287.252c0,8.732-4.59,13.227-13.273,13.227c-10.412,0-12.485-5.774-12.485-11.695v-22.107h4.541v21.764
			c0,4.586,1.528,8.289,8.241,8.289c5.821,0,8.537-2.418,8.537-9.129v-20.924h4.44L602.669,287.252L602.669,287.252z"/>
		<path d="M623.734,299.982v-33.309c0,0,4.736-0.199,8.734-0.199c8.685,0,12.633,4.642,12.633,10.364
			c0,6.709-5.033,11.743-13.322,11.743c-1.729,0-3.504-0.146-3.504-0.146v11.547H623.734L623.734,299.982z M628.274,284.588
			c0,0,1.925,0.295,3.849,0.295c5.526,0,8.29-3.205,8.29-7.402c0-4.293-2.615-7.301-8.487-7.301c-1.727,0-3.65,0.098-3.65,0.098
			L628.274,284.588L628.274,284.588z"/>
		<path d="M699.57,270.869c-1.777-0.494-4.097-0.891-6.021-0.891c-4.44,0-6.76,1.875-6.76,4.985c0,7.302,15.346,4.735,15.346,15.74
			c0,5.578-4.193,9.722-11.991,9.722c-2.713,0-5.428-0.346-7.5-0.887v-4.441c2.121,0.84,5.084,1.432,7.747,1.432
			c4.047,0,7.008-1.58,7.008-5.479c0-7.696-15.248-4.981-15.248-15.739c0-5.332,4.294-9.078,11.694-9.078
			c1.925,0,3.947,0.195,5.725,0.541V270.869z"/>
		<path d="M719.799,299.982v-33.309h18.852v3.751h-14.312v10.558h13.125v3.652h-13.125v11.547h14.508v3.801H719.799z"/>
		<path d="M775.358,299.982l-10.067-14.409h-2.416v14.409h-4.541v-33.26c0,0,4.393-0.248,8.686-0.248
			c6.959,0,11.695,2.715,11.695,9.082c0,5.771-3.998,8.732-8.734,9.424c0,0,1.432,1.727,2.715,3.555l8.29,11.447H775.358
			L775.358,299.982z M762.875,282.121c0,0,1.875,0.047,3.552,0.047c4.836,0,7.552-2.268,7.552-6.068
			c0-3.799-2.566-5.921-7.354-5.921c-1.826,0-3.75,0.099-3.75,0.099V282.121z"/>
		<path d="M810.934,299.982h-5.528l-11.893-33.309h5.082l7.449,21.664c0.744,2.071,1.581,4.885,2.221,7.254h0.055
			c0.64-2.271,1.476-5.033,2.314-7.453l7.501-21.465h4.739L810.934,299.982z"/>
		<path d="M838.263,299.982v-33.309h4.543v33.309H838.263z"/>
		<path d="M884.302,299.046c-2.715,0.788-5.771,1.333-9.03,1.333c-10.412,0-14.904-6.712-14.904-16.285
			c0-10.117,5.085-17.717,16.038-17.717c2.565,0,5.232,0.396,7.501,1.139v4.487c-2.663-1.134-5.426-1.728-8.09-1.728
			c-7.402,0-10.562,5.922-10.562,13.324c0,8.094,3.603,12.73,10.855,12.73c2.468,0,5.626-0.542,8.19-1.331L884.302,299.046
			L884.302,299.046z"/>
		<path d="M902.157,299.982v-33.309h18.854v3.751h-14.312v10.558h13.127v3.652h-13.127v11.547h14.508v3.801H902.157z"/>
		<path d="M956.188,270.869c-1.773-0.494-4.097-0.891-6.02-0.891c-4.44,0-6.76,1.875-6.76,4.985c0,7.302,15.344,4.735,15.344,15.74
			c0,5.578-4.189,9.722-11.989,9.722c-2.715,0-5.43-0.346-7.501-0.887v-4.441c2.122,0.84,5.084,1.432,7.748,1.432
			c4.045,0,7.007-1.58,7.007-5.479c0-7.696-15.248-4.981-15.248-15.739c0-5.332,4.295-9.078,11.697-9.078
			c1.923,0,3.947,0.195,5.722,0.541V270.869z"/>
	</g>
	<g>
		<path fill="#4C5356" d="M1162.314,200l-31.486-50.668c-5.641-9.036-8.76-14.962-11.727-21.628h-0.298
			c0.738,10.074,1.486,28.887,1.486,45.034V200h-18.712V100h21.975l29.555,47.406c5.199,8.149,9.207,15.705,12.022,21.926h0.302
			c-0.74-10.96-1.485-28.591-1.485-45.036V100h18.716v100H1162.314z"/>
		<polygon fill="#4C5356" points="1014.568,200 1014.568,100 1075.007,100 1075.007,116.147 1033.869,116.147 1033.869,140.888 
			1071.733,140.888 1071.733,156.295 1033.869,156.295 1033.869,183.407 1075.453,183.407 1075.453,200 		"/>
		<path fill="#4C5356" d="M984.879,195.257c-9.956,3.998-22.28,6.222-34.304,6.222c-32.97,0-50.641-19.556-50.641-49.333
			c0-31.702,19.451-53.628,55.688-53.628c8.463,0,17.822,1.333,25.245,3.407v18.815c-8.172-3.407-17.821-5.037-26.435-5.037
			c-23.762,0-33.562,15.703-33.562,34.37c0,21.036,11.133,34.071,31.927,34.071c4.753,0,8.909-0.589,12.771-1.774v-34.816h19.309
			L984.879,195.257L984.879,195.257z"/>
		<path fill="#4C5356" d="M867.715,200l-6.834-21.332h-37.716L816.188,200H796.73l33.565-100h25.093l33.708,100H867.715z
			 M846.183,132.148c-1.635-5.186-2.972-10.222-4.011-14.963h-0.298c-1.039,4.741-2.377,9.926-3.862,14.814l-10.389,31.409h28.955
			L846.183,132.148z"/>
		<path fill="#4C5356" d="M767.342,200h-23.908l-15.295-54.667c-1.337-5.333-2.524-12.149-3.268-18.221h-0.297
			c-0.893,6.369-1.782,12.888-3.119,18.221L706.458,200h-24.057l-25.098-100h20.643l13.364,54.666
			c1.93,9.332,3.267,17.334,4.307,24.889h0.297c1.041-7.555,2.525-15.852,4.752-24.593L715.812,100h19.306l15.592,55.556
			c2.08,7.406,4.01,15.997,5.197,23.999h0.298c1.039-7.704,2.226-15.852,3.862-23.703L773.284,100h19.007L767.342,200z"/>
		<path fill="#4C5356" d="M637.263,117.185c-5.494-1.63-12.623-2.815-18.562-2.815c-10.989,0-16.634,4.444-16.634,11.555
			c0,18.223,43.512,11.853,43.512,44.741c0,17.927-13.662,30.962-38.164,30.962c-8.317,0-16.781-1.039-23.315-2.813v-18.374
			c6.535,2.519,16.04,4.448,24.058,4.448c9.802,0,16.781-3.703,16.781-12.446c0-19.259-42.917-12.149-42.917-44.739
			c0-17.333,13.96-29.333,37.867-29.333c5.493,0,12.028,0.74,17.373,1.777L637.263,117.185L637.263,117.185z"/>
		<polygon fill="#4C5356" points="546.986,200 511.938,151.999 511.938,200 492.633,200 492.633,100 511.938,100 511.938,145.333 
			545.796,100 568.665,100 531.689,147.702 571.042,200 		"/>
		<polygon fill="#4C5356" points="418.24,200 418.24,100 437.546,100 437.546,183.258 474.077,183.258 474.077,200 		"/>
		<path fill="#4C5356" d="M347.268,201.628c-30.146,0-46.035-18.37-46.035-49.777c0-34.666,22.572-53.479,49.154-53.479
			c30.146,0,46.036,18.369,46.036,49.776C396.422,182.811,373.85,201.628,347.268,201.628z M348.751,115.704
			c-15.74,0-26.878,11.851-26.878,33.777c0,21.482,8.911,34.812,26.878,34.812c15.741,0,27.027-11.851,27.027-33.924
			C375.779,129.037,366.87,115.704,348.751,115.704z"/>
		<path fill="#4C5356" d="M258.919,200h-25.096l-33.709-100h21.383l19.307,59.851c1.929,6.665,4.307,15.259,5.938,22.222h0.296
			c1.635-6.817,3.862-15.259,6.089-22.517L272.581,100h19.9L258.919,200z"/>
	</g>
</g>
</svg>
